<mxfile host="app.diagrams.net" modified="2023-07-01T11:30:15.015Z" agent="Mozilla/5.0 (Windows NT 10.0; Win64; x64) AppleWebKit/537.36 (KHTML, like Gecko) Chrome/114.0.0.0 Safari/537.36 Edg/114.0.1823.58" etag="w17D8BDBa42eigWwz_yI" version="21.5.2" type="github">
  <diagram name="第 1 页" id="e8m3HavPDa0HkODhK_ue">
    <mxGraphModel dx="1392" dy="797" grid="1" gridSize="10" guides="1" tooltips="1" connect="1" arrows="1" fold="1" page="1" pageScale="1" pageWidth="827" pageHeight="1169" math="0" shadow="0">
      <root>
        <mxCell id="0" />
        <mxCell id="1" parent="0" />
        <mxCell id="gyeuEvGROa_GYthgPSTE-1" value="" style="rounded=0;whiteSpace=wrap;html=1;" vertex="1" parent="1">
          <mxGeometry x="219" y="30" width="452" height="330" as="geometry" />
        </mxCell>
        <mxCell id="gyeuEvGROa_GYthgPSTE-2" value="" style="rounded=0;whiteSpace=wrap;html=1;" vertex="1" parent="1">
          <mxGeometry x="682" y="30" width="430" height="330" as="geometry" />
        </mxCell>
        <mxCell id="gyeuEvGROa_GYthgPSTE-3" value="" style="rounded=0;whiteSpace=wrap;html=1;" vertex="1" parent="1">
          <mxGeometry x="1124" y="30" width="140" height="330" as="geometry" />
        </mxCell>
        <mxCell id="gyeuEvGROa_GYthgPSTE-4" value="" style="rounded=0;whiteSpace=wrap;html=1;" vertex="1" parent="1">
          <mxGeometry x="219" y="360" width="452" height="533" as="geometry" />
        </mxCell>
        <mxCell id="gyeuEvGROa_GYthgPSTE-5" value="" style="rounded=0;whiteSpace=wrap;html=1;" vertex="1" parent="1">
          <mxGeometry x="717" y="360" width="524" height="283" as="geometry" />
        </mxCell>
        <mxCell id="gyeuEvGROa_GYthgPSTE-6" value="" style="rounded=0;whiteSpace=wrap;html=1;" vertex="1" parent="1">
          <mxGeometry x="1018" y="643" width="223" height="220" as="geometry" />
        </mxCell>
        <mxCell id="gyeuEvGROa_GYthgPSTE-7" value="" style="rounded=0;whiteSpace=wrap;html=1;" vertex="1" parent="1">
          <mxGeometry x="39" y="360" width="180" height="533" as="geometry" />
        </mxCell>
        <mxCell id="gyeuEvGROa_GYthgPSTE-8" value="" style="endArrow=classic;startArrow=classic;html=1;rounded=0;" edge="1" parent="1">
          <mxGeometry width="50" height="50" relative="1" as="geometry">
            <mxPoint x="40" y="910" as="sourcePoint" />
            <mxPoint x="220" y="910" as="targetPoint" />
          </mxGeometry>
        </mxCell>
        <mxCell id="gyeuEvGROa_GYthgPSTE-9" value="1.8" style="edgeLabel;html=1;align=center;verticalAlign=middle;resizable=0;points=[];" vertex="1" connectable="0" parent="gyeuEvGROa_GYthgPSTE-8">
          <mxGeometry x="-0.0519" y="-1" relative="1" as="geometry">
            <mxPoint as="offset" />
          </mxGeometry>
        </mxCell>
        <mxCell id="gyeuEvGROa_GYthgPSTE-10" value="" style="endArrow=classic;startArrow=classic;html=1;rounded=0;" edge="1" parent="1">
          <mxGeometry width="50" height="50" relative="1" as="geometry">
            <mxPoint x="20" y="890" as="sourcePoint" />
            <mxPoint x="20" y="360" as="targetPoint" />
          </mxGeometry>
        </mxCell>
        <mxCell id="gyeuEvGROa_GYthgPSTE-11" value="5.33" style="edgeLabel;html=1;align=center;verticalAlign=middle;resizable=0;points=[];" vertex="1" connectable="0" parent="gyeuEvGROa_GYthgPSTE-10">
          <mxGeometry x="-0.0465" y="-2" relative="1" as="geometry">
            <mxPoint as="offset" />
          </mxGeometry>
        </mxCell>
        <mxCell id="gyeuEvGROa_GYthgPSTE-12" value="" style="endArrow=classic;startArrow=classic;html=1;rounded=0;" edge="1" parent="1">
          <mxGeometry width="50" height="50" relative="1" as="geometry">
            <mxPoint x="200" y="350" as="sourcePoint" />
            <mxPoint x="200" y="30" as="targetPoint" />
          </mxGeometry>
        </mxCell>
        <mxCell id="gyeuEvGROa_GYthgPSTE-13" value="3.3" style="edgeLabel;html=1;align=center;verticalAlign=middle;resizable=0;points=[];" vertex="1" connectable="0" parent="gyeuEvGROa_GYthgPSTE-12">
          <mxGeometry x="0.0417" y="2" relative="1" as="geometry">
            <mxPoint as="offset" />
          </mxGeometry>
        </mxCell>
        <mxCell id="gyeuEvGROa_GYthgPSTE-14" value="" style="endArrow=classic;startArrow=classic;html=1;rounded=0;" edge="1" parent="1">
          <mxGeometry width="50" height="50" relative="1" as="geometry">
            <mxPoint x="219" y="10" as="sourcePoint" />
            <mxPoint x="670" y="10" as="targetPoint" />
          </mxGeometry>
        </mxCell>
        <mxCell id="gyeuEvGROa_GYthgPSTE-15" value="4.52" style="edgeLabel;html=1;align=center;verticalAlign=middle;resizable=0;points=[];" vertex="1" connectable="0" parent="gyeuEvGROa_GYthgPSTE-14">
          <mxGeometry x="0.0007" y="2" relative="1" as="geometry">
            <mxPoint as="offset" />
          </mxGeometry>
        </mxCell>
        <mxCell id="gyeuEvGROa_GYthgPSTE-16" value="" style="endArrow=classic;startArrow=classic;html=1;rounded=0;" edge="1" parent="1">
          <mxGeometry width="50" height="50" relative="1" as="geometry">
            <mxPoint x="680" y="10" as="sourcePoint" />
            <mxPoint x="1100" y="10" as="targetPoint" />
          </mxGeometry>
        </mxCell>
        <mxCell id="gyeuEvGROa_GYthgPSTE-17" value="4.3" style="edgeLabel;html=1;align=center;verticalAlign=middle;resizable=0;points=[];" vertex="1" connectable="0" parent="gyeuEvGROa_GYthgPSTE-16">
          <mxGeometry x="0.0122" y="-3" relative="1" as="geometry">
            <mxPoint as="offset" />
          </mxGeometry>
        </mxCell>
        <mxCell id="gyeuEvGROa_GYthgPSTE-18" value="" style="endArrow=classic;startArrow=classic;html=1;rounded=0;" edge="1" parent="1">
          <mxGeometry width="50" height="50" relative="1" as="geometry">
            <mxPoint x="1110" y="10" as="sourcePoint" />
            <mxPoint x="1240" y="10" as="targetPoint" />
          </mxGeometry>
        </mxCell>
        <mxCell id="gyeuEvGROa_GYthgPSTE-19" value="1.4" style="edgeLabel;html=1;align=center;verticalAlign=middle;resizable=0;points=[];" vertex="1" connectable="0" parent="gyeuEvGROa_GYthgPSTE-18">
          <mxGeometry x="-0.0256" y="-1" relative="1" as="geometry">
            <mxPoint as="offset" />
          </mxGeometry>
        </mxCell>
        <mxCell id="gyeuEvGROa_GYthgPSTE-20" value="" style="endArrow=classic;startArrow=classic;html=1;rounded=0;" edge="1" parent="1">
          <mxGeometry width="50" height="50" relative="1" as="geometry">
            <mxPoint x="1260" y="640" as="sourcePoint" />
            <mxPoint x="1260" y="360" as="targetPoint" />
          </mxGeometry>
        </mxCell>
        <mxCell id="gyeuEvGROa_GYthgPSTE-21" value="2.83" style="edgeLabel;html=1;align=center;verticalAlign=middle;resizable=0;points=[];" vertex="1" connectable="0" parent="gyeuEvGROa_GYthgPSTE-20">
          <mxGeometry x="0.1095" y="1" relative="1" as="geometry">
            <mxPoint as="offset" />
          </mxGeometry>
        </mxCell>
        <mxCell id="gyeuEvGROa_GYthgPSTE-22" value="" style="endArrow=classic;startArrow=classic;html=1;rounded=0;" edge="1" parent="1">
          <mxGeometry width="50" height="50" relative="1" as="geometry">
            <mxPoint x="1260" y="860" as="sourcePoint" />
            <mxPoint x="1260" y="640" as="targetPoint" />
          </mxGeometry>
        </mxCell>
        <mxCell id="gyeuEvGROa_GYthgPSTE-23" value="2.2" style="edgeLabel;html=1;align=center;verticalAlign=middle;resizable=0;points=[];" vertex="1" connectable="0" parent="gyeuEvGROa_GYthgPSTE-22">
          <mxGeometry x="0.0303" y="4" relative="1" as="geometry">
            <mxPoint as="offset" />
          </mxGeometry>
        </mxCell>
        <mxCell id="gyeuEvGROa_GYthgPSTE-24" value="" style="endArrow=classic;startArrow=classic;html=1;rounded=0;" edge="1" parent="1">
          <mxGeometry width="50" height="50" relative="1" as="geometry">
            <mxPoint x="1018" y="880" as="sourcePoint" />
            <mxPoint x="1238" y="880" as="targetPoint" />
          </mxGeometry>
        </mxCell>
        <mxCell id="gyeuEvGROa_GYthgPSTE-25" value="2.23" style="edgeLabel;html=1;align=center;verticalAlign=middle;resizable=0;points=[];" vertex="1" connectable="0" parent="gyeuEvGROa_GYthgPSTE-24">
          <mxGeometry x="-0.0152" y="1" relative="1" as="geometry">
            <mxPoint as="offset" />
          </mxGeometry>
        </mxCell>
        <mxCell id="gyeuEvGROa_GYthgPSTE-77" value="" style="group" vertex="1" connectable="0" parent="1">
          <mxGeometry x="670" y="30" width="12" height="330" as="geometry" />
        </mxCell>
        <mxCell id="gyeuEvGROa_GYthgPSTE-26" value="" style="rounded=0;whiteSpace=wrap;html=1;shadow=0;" vertex="1" parent="gyeuEvGROa_GYthgPSTE-77">
          <mxGeometry width="12" height="330" as="geometry" />
        </mxCell>
        <mxCell id="gyeuEvGROa_GYthgPSTE-27" value="" style="endArrow=none;html=1;rounded=0;entryX=0.97;entryY=0.422;entryDx=0;entryDy=0;entryPerimeter=0;" edge="1" parent="gyeuEvGROa_GYthgPSTE-77" target="gyeuEvGROa_GYthgPSTE-26">
          <mxGeometry width="50" height="50" relative="1" as="geometry">
            <mxPoint y="150" as="sourcePoint" />
            <mxPoint x="11" y="140" as="targetPoint" />
          </mxGeometry>
        </mxCell>
        <mxCell id="gyeuEvGROa_GYthgPSTE-28" value="" style="endArrow=none;html=1;rounded=0;entryX=0.97;entryY=0.422;entryDx=0;entryDy=0;entryPerimeter=0;" edge="1" parent="gyeuEvGROa_GYthgPSTE-77">
          <mxGeometry width="50" height="50" relative="1" as="geometry">
            <mxPoint y="160" as="sourcePoint" />
            <mxPoint x="12" y="149" as="targetPoint" />
          </mxGeometry>
        </mxCell>
        <mxCell id="gyeuEvGROa_GYthgPSTE-29" value="" style="endArrow=none;html=1;rounded=0;entryX=0.97;entryY=0.422;entryDx=0;entryDy=0;entryPerimeter=0;" edge="1" parent="gyeuEvGROa_GYthgPSTE-77">
          <mxGeometry width="50" height="50" relative="1" as="geometry">
            <mxPoint y="170.5" as="sourcePoint" />
            <mxPoint x="12" y="159.5" as="targetPoint" />
          </mxGeometry>
        </mxCell>
        <mxCell id="gyeuEvGROa_GYthgPSTE-30" value="" style="endArrow=none;html=1;rounded=0;entryX=0.97;entryY=0.422;entryDx=0;entryDy=0;entryPerimeter=0;" edge="1" parent="gyeuEvGROa_GYthgPSTE-77">
          <mxGeometry width="50" height="50" relative="1" as="geometry">
            <mxPoint y="180" as="sourcePoint" />
            <mxPoint x="12" y="169" as="targetPoint" />
          </mxGeometry>
        </mxCell>
        <mxCell id="gyeuEvGROa_GYthgPSTE-31" value="" style="endArrow=none;html=1;rounded=0;entryX=0.97;entryY=0.422;entryDx=0;entryDy=0;entryPerimeter=0;" edge="1" parent="gyeuEvGROa_GYthgPSTE-77">
          <mxGeometry width="50" height="50" relative="1" as="geometry">
            <mxPoint y="190" as="sourcePoint" />
            <mxPoint x="12" y="179" as="targetPoint" />
          </mxGeometry>
        </mxCell>
        <mxCell id="gyeuEvGROa_GYthgPSTE-32" value="" style="endArrow=none;html=1;rounded=0;entryX=0.97;entryY=0.422;entryDx=0;entryDy=0;entryPerimeter=0;" edge="1" parent="gyeuEvGROa_GYthgPSTE-77">
          <mxGeometry width="50" height="50" relative="1" as="geometry">
            <mxPoint y="200" as="sourcePoint" />
            <mxPoint x="12" y="189" as="targetPoint" />
          </mxGeometry>
        </mxCell>
        <mxCell id="gyeuEvGROa_GYthgPSTE-33" value="" style="endArrow=none;html=1;rounded=0;entryX=0.97;entryY=0.422;entryDx=0;entryDy=0;entryPerimeter=0;" edge="1" parent="gyeuEvGROa_GYthgPSTE-77">
          <mxGeometry width="50" height="50" relative="1" as="geometry">
            <mxPoint y="210" as="sourcePoint" />
            <mxPoint x="12" y="199" as="targetPoint" />
          </mxGeometry>
        </mxCell>
        <mxCell id="gyeuEvGROa_GYthgPSTE-34" value="" style="endArrow=none;html=1;rounded=0;entryX=0.97;entryY=0.422;entryDx=0;entryDy=0;entryPerimeter=0;" edge="1" parent="gyeuEvGROa_GYthgPSTE-77">
          <mxGeometry width="50" height="50" relative="1" as="geometry">
            <mxPoint y="220" as="sourcePoint" />
            <mxPoint x="12" y="209" as="targetPoint" />
          </mxGeometry>
        </mxCell>
        <mxCell id="gyeuEvGROa_GYthgPSTE-35" value="" style="endArrow=none;html=1;rounded=0;entryX=0.97;entryY=0.422;entryDx=0;entryDy=0;entryPerimeter=0;" edge="1" parent="gyeuEvGROa_GYthgPSTE-77">
          <mxGeometry width="50" height="50" relative="1" as="geometry">
            <mxPoint y="230" as="sourcePoint" />
            <mxPoint x="12" y="219" as="targetPoint" />
          </mxGeometry>
        </mxCell>
        <mxCell id="gyeuEvGROa_GYthgPSTE-36" value="" style="endArrow=none;html=1;rounded=0;entryX=0.97;entryY=0.422;entryDx=0;entryDy=0;entryPerimeter=0;" edge="1" parent="gyeuEvGROa_GYthgPSTE-77">
          <mxGeometry width="50" height="50" relative="1" as="geometry">
            <mxPoint y="240" as="sourcePoint" />
            <mxPoint x="12" y="229" as="targetPoint" />
          </mxGeometry>
        </mxCell>
        <mxCell id="gyeuEvGROa_GYthgPSTE-37" value="" style="endArrow=none;html=1;rounded=0;entryX=0.97;entryY=0.422;entryDx=0;entryDy=0;entryPerimeter=0;" edge="1" parent="gyeuEvGROa_GYthgPSTE-77">
          <mxGeometry width="50" height="50" relative="1" as="geometry">
            <mxPoint y="250" as="sourcePoint" />
            <mxPoint x="12" y="239" as="targetPoint" />
          </mxGeometry>
        </mxCell>
        <mxCell id="gyeuEvGROa_GYthgPSTE-38" value="" style="endArrow=none;html=1;rounded=0;entryX=0.97;entryY=0.422;entryDx=0;entryDy=0;entryPerimeter=0;" edge="1" parent="gyeuEvGROa_GYthgPSTE-77">
          <mxGeometry width="50" height="50" relative="1" as="geometry">
            <mxPoint y="260" as="sourcePoint" />
            <mxPoint x="12" y="249" as="targetPoint" />
          </mxGeometry>
        </mxCell>
        <mxCell id="gyeuEvGROa_GYthgPSTE-40" value="" style="endArrow=none;html=1;rounded=0;entryX=0.97;entryY=0.422;entryDx=0;entryDy=0;entryPerimeter=0;" edge="1" parent="gyeuEvGROa_GYthgPSTE-77">
          <mxGeometry width="50" height="50" relative="1" as="geometry">
            <mxPoint y="270" as="sourcePoint" />
            <mxPoint x="12" y="259" as="targetPoint" />
          </mxGeometry>
        </mxCell>
        <mxCell id="gyeuEvGROa_GYthgPSTE-41" value="" style="endArrow=none;html=1;rounded=0;entryX=0.97;entryY=0.422;entryDx=0;entryDy=0;entryPerimeter=0;" edge="1" parent="gyeuEvGROa_GYthgPSTE-77">
          <mxGeometry width="50" height="50" relative="1" as="geometry">
            <mxPoint y="280" as="sourcePoint" />
            <mxPoint x="12" y="269" as="targetPoint" />
          </mxGeometry>
        </mxCell>
        <mxCell id="gyeuEvGROa_GYthgPSTE-42" value="" style="endArrow=none;html=1;rounded=0;entryX=0.97;entryY=0.422;entryDx=0;entryDy=0;entryPerimeter=0;" edge="1" parent="gyeuEvGROa_GYthgPSTE-77">
          <mxGeometry width="50" height="50" relative="1" as="geometry">
            <mxPoint y="290" as="sourcePoint" />
            <mxPoint x="12" y="279" as="targetPoint" />
          </mxGeometry>
        </mxCell>
        <mxCell id="gyeuEvGROa_GYthgPSTE-43" value="" style="endArrow=none;html=1;rounded=0;entryX=0.97;entryY=0.422;entryDx=0;entryDy=0;entryPerimeter=0;" edge="1" parent="gyeuEvGROa_GYthgPSTE-77">
          <mxGeometry width="50" height="50" relative="1" as="geometry">
            <mxPoint y="300" as="sourcePoint" />
            <mxPoint x="12" y="289" as="targetPoint" />
          </mxGeometry>
        </mxCell>
        <mxCell id="gyeuEvGROa_GYthgPSTE-44" value="" style="endArrow=none;html=1;rounded=0;entryX=0.97;entryY=0.422;entryDx=0;entryDy=0;entryPerimeter=0;" edge="1" parent="gyeuEvGROa_GYthgPSTE-77">
          <mxGeometry width="50" height="50" relative="1" as="geometry">
            <mxPoint y="310" as="sourcePoint" />
            <mxPoint x="12" y="299" as="targetPoint" />
          </mxGeometry>
        </mxCell>
        <mxCell id="gyeuEvGROa_GYthgPSTE-45" value="" style="endArrow=none;html=1;rounded=0;entryX=0.97;entryY=0.422;entryDx=0;entryDy=0;entryPerimeter=0;" edge="1" parent="gyeuEvGROa_GYthgPSTE-77">
          <mxGeometry width="50" height="50" relative="1" as="geometry">
            <mxPoint y="320" as="sourcePoint" />
            <mxPoint x="12" y="309" as="targetPoint" />
          </mxGeometry>
        </mxCell>
        <mxCell id="gyeuEvGROa_GYthgPSTE-46" value="" style="endArrow=none;html=1;rounded=0;entryX=0.97;entryY=0.422;entryDx=0;entryDy=0;entryPerimeter=0;" edge="1" parent="gyeuEvGROa_GYthgPSTE-77">
          <mxGeometry width="50" height="50" relative="1" as="geometry">
            <mxPoint y="330" as="sourcePoint" />
            <mxPoint x="12" y="319" as="targetPoint" />
          </mxGeometry>
        </mxCell>
        <mxCell id="gyeuEvGROa_GYthgPSTE-47" value="" style="endArrow=none;html=1;rounded=0;entryX=0.97;entryY=0.422;entryDx=0;entryDy=0;entryPerimeter=0;" edge="1" parent="gyeuEvGROa_GYthgPSTE-77">
          <mxGeometry width="50" height="50" relative="1" as="geometry">
            <mxPoint y="11" as="sourcePoint" />
            <mxPoint x="12" as="targetPoint" />
          </mxGeometry>
        </mxCell>
        <mxCell id="gyeuEvGROa_GYthgPSTE-48" value="" style="endArrow=none;html=1;rounded=0;entryX=0.97;entryY=0.422;entryDx=0;entryDy=0;entryPerimeter=0;" edge="1" parent="gyeuEvGROa_GYthgPSTE-77">
          <mxGeometry width="50" height="50" relative="1" as="geometry">
            <mxPoint y="21" as="sourcePoint" />
            <mxPoint x="12" y="10" as="targetPoint" />
          </mxGeometry>
        </mxCell>
        <mxCell id="gyeuEvGROa_GYthgPSTE-49" value="" style="endArrow=none;html=1;rounded=0;entryX=0.97;entryY=0.422;entryDx=0;entryDy=0;entryPerimeter=0;" edge="1" parent="gyeuEvGROa_GYthgPSTE-77">
          <mxGeometry width="50" height="50" relative="1" as="geometry">
            <mxPoint y="31" as="sourcePoint" />
            <mxPoint x="12" y="20" as="targetPoint" />
          </mxGeometry>
        </mxCell>
        <mxCell id="gyeuEvGROa_GYthgPSTE-50" value="" style="endArrow=none;html=1;rounded=0;entryX=0.97;entryY=0.422;entryDx=0;entryDy=0;entryPerimeter=0;" edge="1" parent="gyeuEvGROa_GYthgPSTE-77">
          <mxGeometry width="50" height="50" relative="1" as="geometry">
            <mxPoint y="41" as="sourcePoint" />
            <mxPoint x="12" y="30" as="targetPoint" />
          </mxGeometry>
        </mxCell>
        <mxCell id="gyeuEvGROa_GYthgPSTE-51" value="" style="endArrow=none;html=1;rounded=0;entryX=0.97;entryY=0.422;entryDx=0;entryDy=0;entryPerimeter=0;" edge="1" parent="gyeuEvGROa_GYthgPSTE-77">
          <mxGeometry width="50" height="50" relative="1" as="geometry">
            <mxPoint y="61" as="sourcePoint" />
            <mxPoint x="12" y="50" as="targetPoint" />
          </mxGeometry>
        </mxCell>
        <mxCell id="gyeuEvGROa_GYthgPSTE-52" value="" style="endArrow=none;html=1;rounded=0;entryX=0.97;entryY=0.422;entryDx=0;entryDy=0;entryPerimeter=0;" edge="1" parent="gyeuEvGROa_GYthgPSTE-77">
          <mxGeometry width="50" height="50" relative="1" as="geometry">
            <mxPoint y="71" as="sourcePoint" />
            <mxPoint x="12" y="60" as="targetPoint" />
          </mxGeometry>
        </mxCell>
        <mxCell id="gyeuEvGROa_GYthgPSTE-53" value="" style="endArrow=none;html=1;rounded=0;entryX=0.97;entryY=0.422;entryDx=0;entryDy=0;entryPerimeter=0;" edge="1" parent="gyeuEvGROa_GYthgPSTE-77">
          <mxGeometry width="50" height="50" relative="1" as="geometry">
            <mxPoint y="51" as="sourcePoint" />
            <mxPoint x="12" y="40" as="targetPoint" />
          </mxGeometry>
        </mxCell>
        <mxCell id="gyeuEvGROa_GYthgPSTE-70" value="" style="endArrow=none;html=1;rounded=0;entryX=0.97;entryY=0.422;entryDx=0;entryDy=0;entryPerimeter=0;" edge="1" parent="gyeuEvGROa_GYthgPSTE-77">
          <mxGeometry width="50" height="50" relative="1" as="geometry">
            <mxPoint y="81" as="sourcePoint" />
            <mxPoint x="12" y="70" as="targetPoint" />
          </mxGeometry>
        </mxCell>
        <mxCell id="gyeuEvGROa_GYthgPSTE-71" value="" style="endArrow=none;html=1;rounded=0;entryX=0.97;entryY=0.422;entryDx=0;entryDy=0;entryPerimeter=0;" edge="1" parent="gyeuEvGROa_GYthgPSTE-77">
          <mxGeometry width="50" height="50" relative="1" as="geometry">
            <mxPoint y="91" as="sourcePoint" />
            <mxPoint x="12" y="80" as="targetPoint" />
          </mxGeometry>
        </mxCell>
        <mxCell id="gyeuEvGROa_GYthgPSTE-72" value="" style="endArrow=none;html=1;rounded=0;entryX=0.97;entryY=0.422;entryDx=0;entryDy=0;entryPerimeter=0;" edge="1" parent="gyeuEvGROa_GYthgPSTE-77">
          <mxGeometry width="50" height="50" relative="1" as="geometry">
            <mxPoint y="101" as="sourcePoint" />
            <mxPoint x="12" y="90" as="targetPoint" />
          </mxGeometry>
        </mxCell>
        <mxCell id="gyeuEvGROa_GYthgPSTE-73" value="" style="endArrow=none;html=1;rounded=0;entryX=0.97;entryY=0.422;entryDx=0;entryDy=0;entryPerimeter=0;" edge="1" parent="gyeuEvGROa_GYthgPSTE-77">
          <mxGeometry width="50" height="50" relative="1" as="geometry">
            <mxPoint y="111" as="sourcePoint" />
            <mxPoint x="12" y="100" as="targetPoint" />
          </mxGeometry>
        </mxCell>
        <mxCell id="gyeuEvGROa_GYthgPSTE-74" value="" style="endArrow=none;html=1;rounded=0;entryX=0.97;entryY=0.422;entryDx=0;entryDy=0;entryPerimeter=0;" edge="1" parent="gyeuEvGROa_GYthgPSTE-77">
          <mxGeometry width="50" height="50" relative="1" as="geometry">
            <mxPoint y="131" as="sourcePoint" />
            <mxPoint x="12" y="120" as="targetPoint" />
          </mxGeometry>
        </mxCell>
        <mxCell id="gyeuEvGROa_GYthgPSTE-75" value="" style="endArrow=none;html=1;rounded=0;entryX=0.97;entryY=0.422;entryDx=0;entryDy=0;entryPerimeter=0;" edge="1" parent="gyeuEvGROa_GYthgPSTE-77">
          <mxGeometry width="50" height="50" relative="1" as="geometry">
            <mxPoint y="141" as="sourcePoint" />
            <mxPoint x="12" y="130" as="targetPoint" />
          </mxGeometry>
        </mxCell>
        <mxCell id="gyeuEvGROa_GYthgPSTE-76" value="" style="endArrow=none;html=1;rounded=0;entryX=0.97;entryY=0.422;entryDx=0;entryDy=0;entryPerimeter=0;" edge="1" parent="gyeuEvGROa_GYthgPSTE-77">
          <mxGeometry width="50" height="50" relative="1" as="geometry">
            <mxPoint y="121" as="sourcePoint" />
            <mxPoint x="12" y="110" as="targetPoint" />
          </mxGeometry>
        </mxCell>
        <mxCell id="gyeuEvGROa_GYthgPSTE-78" value="" style="group" vertex="1" connectable="0" parent="1">
          <mxGeometry x="1112" y="30" width="12" height="330" as="geometry" />
        </mxCell>
        <mxCell id="gyeuEvGROa_GYthgPSTE-79" value="" style="rounded=0;whiteSpace=wrap;html=1;shadow=0;" vertex="1" parent="gyeuEvGROa_GYthgPSTE-78">
          <mxGeometry width="12" height="330" as="geometry" />
        </mxCell>
        <mxCell id="gyeuEvGROa_GYthgPSTE-80" value="" style="endArrow=none;html=1;rounded=0;entryX=0.97;entryY=0.422;entryDx=0;entryDy=0;entryPerimeter=0;" edge="1" parent="gyeuEvGROa_GYthgPSTE-78" target="gyeuEvGROa_GYthgPSTE-79">
          <mxGeometry width="50" height="50" relative="1" as="geometry">
            <mxPoint y="150" as="sourcePoint" />
            <mxPoint x="11" y="140" as="targetPoint" />
          </mxGeometry>
        </mxCell>
        <mxCell id="gyeuEvGROa_GYthgPSTE-81" value="" style="endArrow=none;html=1;rounded=0;entryX=0.97;entryY=0.422;entryDx=0;entryDy=0;entryPerimeter=0;" edge="1" parent="gyeuEvGROa_GYthgPSTE-78">
          <mxGeometry width="50" height="50" relative="1" as="geometry">
            <mxPoint y="160" as="sourcePoint" />
            <mxPoint x="12" y="149" as="targetPoint" />
          </mxGeometry>
        </mxCell>
        <mxCell id="gyeuEvGROa_GYthgPSTE-82" value="" style="endArrow=none;html=1;rounded=0;entryX=0.97;entryY=0.422;entryDx=0;entryDy=0;entryPerimeter=0;" edge="1" parent="gyeuEvGROa_GYthgPSTE-78">
          <mxGeometry width="50" height="50" relative="1" as="geometry">
            <mxPoint y="170.5" as="sourcePoint" />
            <mxPoint x="12" y="159.5" as="targetPoint" />
          </mxGeometry>
        </mxCell>
        <mxCell id="gyeuEvGROa_GYthgPSTE-83" value="" style="endArrow=none;html=1;rounded=0;entryX=0.97;entryY=0.422;entryDx=0;entryDy=0;entryPerimeter=0;" edge="1" parent="gyeuEvGROa_GYthgPSTE-78">
          <mxGeometry width="50" height="50" relative="1" as="geometry">
            <mxPoint y="180" as="sourcePoint" />
            <mxPoint x="12" y="169" as="targetPoint" />
          </mxGeometry>
        </mxCell>
        <mxCell id="gyeuEvGROa_GYthgPSTE-84" value="" style="endArrow=none;html=1;rounded=0;entryX=0.97;entryY=0.422;entryDx=0;entryDy=0;entryPerimeter=0;" edge="1" parent="gyeuEvGROa_GYthgPSTE-78">
          <mxGeometry width="50" height="50" relative="1" as="geometry">
            <mxPoint y="190" as="sourcePoint" />
            <mxPoint x="12" y="179" as="targetPoint" />
          </mxGeometry>
        </mxCell>
        <mxCell id="gyeuEvGROa_GYthgPSTE-85" value="" style="endArrow=none;html=1;rounded=0;entryX=0.97;entryY=0.422;entryDx=0;entryDy=0;entryPerimeter=0;" edge="1" parent="gyeuEvGROa_GYthgPSTE-78">
          <mxGeometry width="50" height="50" relative="1" as="geometry">
            <mxPoint y="200" as="sourcePoint" />
            <mxPoint x="12" y="189" as="targetPoint" />
          </mxGeometry>
        </mxCell>
        <mxCell id="gyeuEvGROa_GYthgPSTE-86" value="" style="endArrow=none;html=1;rounded=0;entryX=0.97;entryY=0.422;entryDx=0;entryDy=0;entryPerimeter=0;" edge="1" parent="gyeuEvGROa_GYthgPSTE-78">
          <mxGeometry width="50" height="50" relative="1" as="geometry">
            <mxPoint y="210" as="sourcePoint" />
            <mxPoint x="12" y="199" as="targetPoint" />
          </mxGeometry>
        </mxCell>
        <mxCell id="gyeuEvGROa_GYthgPSTE-87" value="" style="endArrow=none;html=1;rounded=0;entryX=0.97;entryY=0.422;entryDx=0;entryDy=0;entryPerimeter=0;" edge="1" parent="gyeuEvGROa_GYthgPSTE-78">
          <mxGeometry width="50" height="50" relative="1" as="geometry">
            <mxPoint y="220" as="sourcePoint" />
            <mxPoint x="12" y="209" as="targetPoint" />
          </mxGeometry>
        </mxCell>
        <mxCell id="gyeuEvGROa_GYthgPSTE-88" value="" style="endArrow=none;html=1;rounded=0;entryX=0.97;entryY=0.422;entryDx=0;entryDy=0;entryPerimeter=0;" edge="1" parent="gyeuEvGROa_GYthgPSTE-78">
          <mxGeometry width="50" height="50" relative="1" as="geometry">
            <mxPoint y="230" as="sourcePoint" />
            <mxPoint x="12" y="219" as="targetPoint" />
          </mxGeometry>
        </mxCell>
        <mxCell id="gyeuEvGROa_GYthgPSTE-89" value="" style="endArrow=none;html=1;rounded=0;entryX=0.97;entryY=0.422;entryDx=0;entryDy=0;entryPerimeter=0;" edge="1" parent="gyeuEvGROa_GYthgPSTE-78">
          <mxGeometry width="50" height="50" relative="1" as="geometry">
            <mxPoint y="240" as="sourcePoint" />
            <mxPoint x="12" y="229" as="targetPoint" />
          </mxGeometry>
        </mxCell>
        <mxCell id="gyeuEvGROa_GYthgPSTE-90" value="" style="endArrow=none;html=1;rounded=0;entryX=0.97;entryY=0.422;entryDx=0;entryDy=0;entryPerimeter=0;" edge="1" parent="gyeuEvGROa_GYthgPSTE-78">
          <mxGeometry width="50" height="50" relative="1" as="geometry">
            <mxPoint y="250" as="sourcePoint" />
            <mxPoint x="12" y="239" as="targetPoint" />
          </mxGeometry>
        </mxCell>
        <mxCell id="gyeuEvGROa_GYthgPSTE-91" value="" style="endArrow=none;html=1;rounded=0;entryX=0.97;entryY=0.422;entryDx=0;entryDy=0;entryPerimeter=0;" edge="1" parent="gyeuEvGROa_GYthgPSTE-78">
          <mxGeometry width="50" height="50" relative="1" as="geometry">
            <mxPoint y="260" as="sourcePoint" />
            <mxPoint x="12" y="249" as="targetPoint" />
          </mxGeometry>
        </mxCell>
        <mxCell id="gyeuEvGROa_GYthgPSTE-92" value="" style="endArrow=none;html=1;rounded=0;entryX=0.97;entryY=0.422;entryDx=0;entryDy=0;entryPerimeter=0;" edge="1" parent="gyeuEvGROa_GYthgPSTE-78">
          <mxGeometry width="50" height="50" relative="1" as="geometry">
            <mxPoint y="270" as="sourcePoint" />
            <mxPoint x="12" y="259" as="targetPoint" />
          </mxGeometry>
        </mxCell>
        <mxCell id="gyeuEvGROa_GYthgPSTE-93" value="" style="endArrow=none;html=1;rounded=0;entryX=0.97;entryY=0.422;entryDx=0;entryDy=0;entryPerimeter=0;" edge="1" parent="gyeuEvGROa_GYthgPSTE-78">
          <mxGeometry width="50" height="50" relative="1" as="geometry">
            <mxPoint y="280" as="sourcePoint" />
            <mxPoint x="12" y="269" as="targetPoint" />
          </mxGeometry>
        </mxCell>
        <mxCell id="gyeuEvGROa_GYthgPSTE-94" value="" style="endArrow=none;html=1;rounded=0;entryX=0.97;entryY=0.422;entryDx=0;entryDy=0;entryPerimeter=0;" edge="1" parent="gyeuEvGROa_GYthgPSTE-78">
          <mxGeometry width="50" height="50" relative="1" as="geometry">
            <mxPoint y="290" as="sourcePoint" />
            <mxPoint x="12" y="279" as="targetPoint" />
          </mxGeometry>
        </mxCell>
        <mxCell id="gyeuEvGROa_GYthgPSTE-95" value="" style="endArrow=none;html=1;rounded=0;entryX=0.97;entryY=0.422;entryDx=0;entryDy=0;entryPerimeter=0;" edge="1" parent="gyeuEvGROa_GYthgPSTE-78">
          <mxGeometry width="50" height="50" relative="1" as="geometry">
            <mxPoint y="300" as="sourcePoint" />
            <mxPoint x="12" y="289" as="targetPoint" />
          </mxGeometry>
        </mxCell>
        <mxCell id="gyeuEvGROa_GYthgPSTE-96" value="" style="endArrow=none;html=1;rounded=0;entryX=0.97;entryY=0.422;entryDx=0;entryDy=0;entryPerimeter=0;" edge="1" parent="gyeuEvGROa_GYthgPSTE-78">
          <mxGeometry width="50" height="50" relative="1" as="geometry">
            <mxPoint y="310" as="sourcePoint" />
            <mxPoint x="12" y="299" as="targetPoint" />
          </mxGeometry>
        </mxCell>
        <mxCell id="gyeuEvGROa_GYthgPSTE-97" value="" style="endArrow=none;html=1;rounded=0;entryX=0.97;entryY=0.422;entryDx=0;entryDy=0;entryPerimeter=0;" edge="1" parent="gyeuEvGROa_GYthgPSTE-78">
          <mxGeometry width="50" height="50" relative="1" as="geometry">
            <mxPoint y="320" as="sourcePoint" />
            <mxPoint x="12" y="309" as="targetPoint" />
          </mxGeometry>
        </mxCell>
        <mxCell id="gyeuEvGROa_GYthgPSTE-98" value="" style="endArrow=none;html=1;rounded=0;entryX=0.97;entryY=0.422;entryDx=0;entryDy=0;entryPerimeter=0;" edge="1" parent="gyeuEvGROa_GYthgPSTE-78">
          <mxGeometry width="50" height="50" relative="1" as="geometry">
            <mxPoint y="330" as="sourcePoint" />
            <mxPoint x="12" y="319" as="targetPoint" />
          </mxGeometry>
        </mxCell>
        <mxCell id="gyeuEvGROa_GYthgPSTE-99" value="" style="endArrow=none;html=1;rounded=0;entryX=0.97;entryY=0.422;entryDx=0;entryDy=0;entryPerimeter=0;" edge="1" parent="gyeuEvGROa_GYthgPSTE-78">
          <mxGeometry width="50" height="50" relative="1" as="geometry">
            <mxPoint y="11" as="sourcePoint" />
            <mxPoint x="12" as="targetPoint" />
          </mxGeometry>
        </mxCell>
        <mxCell id="gyeuEvGROa_GYthgPSTE-100" value="" style="endArrow=none;html=1;rounded=0;entryX=0.97;entryY=0.422;entryDx=0;entryDy=0;entryPerimeter=0;" edge="1" parent="gyeuEvGROa_GYthgPSTE-78">
          <mxGeometry width="50" height="50" relative="1" as="geometry">
            <mxPoint y="21" as="sourcePoint" />
            <mxPoint x="12" y="10" as="targetPoint" />
          </mxGeometry>
        </mxCell>
        <mxCell id="gyeuEvGROa_GYthgPSTE-101" value="" style="endArrow=none;html=1;rounded=0;entryX=0.97;entryY=0.422;entryDx=0;entryDy=0;entryPerimeter=0;" edge="1" parent="gyeuEvGROa_GYthgPSTE-78">
          <mxGeometry width="50" height="50" relative="1" as="geometry">
            <mxPoint y="31" as="sourcePoint" />
            <mxPoint x="12" y="20" as="targetPoint" />
          </mxGeometry>
        </mxCell>
        <mxCell id="gyeuEvGROa_GYthgPSTE-102" value="" style="endArrow=none;html=1;rounded=0;entryX=0.97;entryY=0.422;entryDx=0;entryDy=0;entryPerimeter=0;" edge="1" parent="gyeuEvGROa_GYthgPSTE-78">
          <mxGeometry width="50" height="50" relative="1" as="geometry">
            <mxPoint y="41" as="sourcePoint" />
            <mxPoint x="12" y="30" as="targetPoint" />
          </mxGeometry>
        </mxCell>
        <mxCell id="gyeuEvGROa_GYthgPSTE-103" value="" style="endArrow=none;html=1;rounded=0;entryX=0.97;entryY=0.422;entryDx=0;entryDy=0;entryPerimeter=0;" edge="1" parent="gyeuEvGROa_GYthgPSTE-78">
          <mxGeometry width="50" height="50" relative="1" as="geometry">
            <mxPoint y="61" as="sourcePoint" />
            <mxPoint x="12" y="50" as="targetPoint" />
          </mxGeometry>
        </mxCell>
        <mxCell id="gyeuEvGROa_GYthgPSTE-104" value="" style="endArrow=none;html=1;rounded=0;entryX=0.97;entryY=0.422;entryDx=0;entryDy=0;entryPerimeter=0;" edge="1" parent="gyeuEvGROa_GYthgPSTE-78">
          <mxGeometry width="50" height="50" relative="1" as="geometry">
            <mxPoint y="71" as="sourcePoint" />
            <mxPoint x="12" y="60" as="targetPoint" />
          </mxGeometry>
        </mxCell>
        <mxCell id="gyeuEvGROa_GYthgPSTE-105" value="" style="endArrow=none;html=1;rounded=0;entryX=0.97;entryY=0.422;entryDx=0;entryDy=0;entryPerimeter=0;" edge="1" parent="gyeuEvGROa_GYthgPSTE-78">
          <mxGeometry width="50" height="50" relative="1" as="geometry">
            <mxPoint y="51" as="sourcePoint" />
            <mxPoint x="12" y="40" as="targetPoint" />
          </mxGeometry>
        </mxCell>
        <mxCell id="gyeuEvGROa_GYthgPSTE-106" value="" style="endArrow=none;html=1;rounded=0;entryX=0.97;entryY=0.422;entryDx=0;entryDy=0;entryPerimeter=0;" edge="1" parent="gyeuEvGROa_GYthgPSTE-78">
          <mxGeometry width="50" height="50" relative="1" as="geometry">
            <mxPoint y="81" as="sourcePoint" />
            <mxPoint x="12" y="70" as="targetPoint" />
          </mxGeometry>
        </mxCell>
        <mxCell id="gyeuEvGROa_GYthgPSTE-107" value="" style="endArrow=none;html=1;rounded=0;entryX=0.97;entryY=0.422;entryDx=0;entryDy=0;entryPerimeter=0;" edge="1" parent="gyeuEvGROa_GYthgPSTE-78">
          <mxGeometry width="50" height="50" relative="1" as="geometry">
            <mxPoint y="91" as="sourcePoint" />
            <mxPoint x="12" y="80" as="targetPoint" />
          </mxGeometry>
        </mxCell>
        <mxCell id="gyeuEvGROa_GYthgPSTE-108" value="" style="endArrow=none;html=1;rounded=0;entryX=0.97;entryY=0.422;entryDx=0;entryDy=0;entryPerimeter=0;" edge="1" parent="gyeuEvGROa_GYthgPSTE-78">
          <mxGeometry width="50" height="50" relative="1" as="geometry">
            <mxPoint y="101" as="sourcePoint" />
            <mxPoint x="12" y="90" as="targetPoint" />
          </mxGeometry>
        </mxCell>
        <mxCell id="gyeuEvGROa_GYthgPSTE-109" value="" style="endArrow=none;html=1;rounded=0;entryX=0.97;entryY=0.422;entryDx=0;entryDy=0;entryPerimeter=0;" edge="1" parent="gyeuEvGROa_GYthgPSTE-78">
          <mxGeometry width="50" height="50" relative="1" as="geometry">
            <mxPoint y="111" as="sourcePoint" />
            <mxPoint x="12" y="100" as="targetPoint" />
          </mxGeometry>
        </mxCell>
        <mxCell id="gyeuEvGROa_GYthgPSTE-110" value="" style="endArrow=none;html=1;rounded=0;entryX=0.97;entryY=0.422;entryDx=0;entryDy=0;entryPerimeter=0;" edge="1" parent="gyeuEvGROa_GYthgPSTE-78">
          <mxGeometry width="50" height="50" relative="1" as="geometry">
            <mxPoint y="131" as="sourcePoint" />
            <mxPoint x="12" y="120" as="targetPoint" />
          </mxGeometry>
        </mxCell>
        <mxCell id="gyeuEvGROa_GYthgPSTE-111" value="" style="endArrow=none;html=1;rounded=0;entryX=0.97;entryY=0.422;entryDx=0;entryDy=0;entryPerimeter=0;" edge="1" parent="gyeuEvGROa_GYthgPSTE-78">
          <mxGeometry width="50" height="50" relative="1" as="geometry">
            <mxPoint y="141" as="sourcePoint" />
            <mxPoint x="12" y="130" as="targetPoint" />
          </mxGeometry>
        </mxCell>
        <mxCell id="gyeuEvGROa_GYthgPSTE-112" value="" style="endArrow=none;html=1;rounded=0;entryX=0.97;entryY=0.422;entryDx=0;entryDy=0;entryPerimeter=0;" edge="1" parent="gyeuEvGROa_GYthgPSTE-78">
          <mxGeometry width="50" height="50" relative="1" as="geometry">
            <mxPoint y="121" as="sourcePoint" />
            <mxPoint x="12" y="110" as="targetPoint" />
          </mxGeometry>
        </mxCell>
      </root>
    </mxGraphModel>
  </diagram>
</mxfile>
